<?xml version="1.0" encoding="UTF-8"?>
<svg id="_レイヤー_2" data-name="レイヤー 2" xmlns="http://www.w3.org/2000/svg" viewBox="0 0 74.29 79.14">
  <defs>
    <style>
      .cls-1 {
        stroke-linecap: round;
      }

      .cls-1, .cls-2 {
        fill: none;
        stroke: #000;
        stroke-miterlimit: 10;
      }

      .cls-3 {
        stroke-width: 0px;
      }
    </style>
  </defs>
  <g id="layer">
    <g id="group">
      <path id="faceline" class="cls-1" d="m7.66,59.55c-1.8,2.35-1.8,17.02,21.58,13.42,7.33-.83,7.19,5.67,7.19,5.67"/>
      <path id="hair" class="cls-3" d="m62.17,58.06c6.11-3.57,5.29-9.23,3.14-11.78-1.25-1.49-3.16-2.3-5.11-2.27-3.81.07-8.24,3.4-8.24,7.22l-7.94-12.34-2.7,7.95-38.46.09C-6.93,26.69,9.9,2.98,31,.31c21.09-2.67,40.36,12.27,43.03,33.36,1.33,10.55-2.27,22.1-11.85,24.39"/>
      <g id="face">
        <g>
          <circle class="cls-3" cx="27.78" cy="49.66" r="2.74"/>
          <circle class="cls-3" cx="17.03" cy="49.66" r="2.74"/>
          <circle class="cls-2" cx="14.29" cy="49.66" r="5.18"/>
          <circle class="cls-2" cx="25.04" cy="49.66" r="5.18"/>
        </g>
        <path class="cls-2" d="m15.77,64.85c3.92,1.67,7.18-.3,8.74-1.63"/>
      </g>
      <g id="ear">
        <path class="cls-3" d="m55.8,72.87c-1.19-7.89-.13-11.51,7.06-15.63,5.74-3.39,4.87-12.64-2.35-13.11-3.91-.04-8.34,2.94-8.55,7.09.14-4.22,4.56-7.3,8.56-7.34,4.47-.07,7.56,4.72,6.37,8.88-.97,4.41-5.77,5.64-8.41,8.7-2.05,2.26-2.56,5.35-2.06,8.29.13,1,.34,2,.38,3.1.01.28-.2.51-.48.52-.29.01-.52-.22-.52-.5h0Z"/>
      </g>
    </g>
  </g>
</svg>