<svg width="64" height="41" viewBox="0 0 64 41" fill="none" xmlns="http://www.w3.org/2000/svg">
<path fill-rule="evenodd" clip-rule="evenodd" d="M63.0416 2.01247L38.2701 37.5473C37.9884 37.9513 37.5047 38.1642 37.0166 38.099C36.5284 38.0337 36.1175 37.7013 35.9518 37.2375L31.1614 23.8295L21.2607 37.4111C20.9551 37.8303 20.4317 38.0308 19.9243 37.9231C19.4169 37.8153 19.0201 37.4195 18.9112 36.9124L16.4743 25.5684L7.37031 39.7657C7.10124 40.1853 6.61815 40.4168 6.12253 40.3636C5.62691 40.3105 5.20388 39.9818 5.02989 39.5147L0.0987187 26.2761L2.56453 25.3577L6.57662 36.1288L15.9826 21.4606C16.2703 21.0119 16.8003 20.7812 17.3247 20.8762C17.8492 20.9713 18.2645 21.3734 18.3764 21.8945L20.8663 33.4852L30.5003 20.2695C30.7875 19.8756 31.269 19.6727 31.7515 19.7424C32.234 19.8121 32.6384 20.1428 32.8025 20.6019L37.571 33.9488L60.883 0.507706L61.9623 1.26009L63.0416 2.01247Z" fill="#FFC327"/>
</svg>
