<svg width="55" height="35" viewBox="0 0 55 35" fill="none" xmlns="http://www.w3.org/2000/svg">
<path fill-rule="evenodd" clip-rule="evenodd" d="M54.2192 1.32976L32.9176 31.8868C32.6755 32.2343 32.2595 32.4173 31.8397 32.3612C31.4199 32.3051 31.0666 32.0193 30.9241 31.6205L26.8048 20.0907L18.2909 31.7697C18.0281 32.1302 17.5781 32.3026 17.1418 32.21C16.7054 32.1174 16.3642 31.777 16.2706 31.3409L14.175 21.586L6.34634 33.7945C6.11496 34.1553 5.69954 34.3544 5.27334 34.3087C4.84715 34.263 4.48338 33.9804 4.33376 33.5787L0.0933512 22.1946L2.21375 21.4047L5.66382 30.667L13.7522 18.0536C13.9996 17.6678 14.4553 17.4693 14.9063 17.5511C15.3573 17.6328 15.7144 17.9786 15.8107 18.4267L17.9518 28.3938L26.2363 17.0294C26.4833 16.6906 26.8973 16.5162 27.3122 16.5761C27.7271 16.636 28.0749 16.9204 28.2159 17.3152L32.3165 28.7924L52.363 0.0357809L53.2911 0.68277L54.2192 1.32976Z" fill="#FFC327"/>
</svg>
