<svg width="31" height="17" viewBox="0 0 31 17" fill="none" xmlns="http://www.w3.org/2000/svg">
<path fill-rule="evenodd" clip-rule="evenodd" d="M5.38981 13.1906C5.05299 13.2725 4.71735 13.3631 4.3832 13.4623L0.966882 1.95889C1.49395 1.80236 2.02336 1.65956 2.5546 1.53039C3.22003 1.36858 3.88828 1.22818 4.55836 1.10894L6.66064 12.9234C6.23552 12.999 5.81171 13.0881 5.38981 13.1906ZM15.273 13.1884C14.4283 12.9849 13.5714 12.8335 12.7076 12.7353L14.063 0.812128C15.4171 0.966053 16.7598 1.20331 18.0832 1.52209L15.273 13.1884ZM23.0574 16.8743C22.3644 16.3481 21.6422 15.8683 20.8958 15.4361L26.9085 5.05116C28.0833 5.73136 29.2212 6.48725 30.3142 7.31716L23.0574 16.8743Z" fill="#A091FF"/>
</svg>
